<svg data-v-423bf9ae="" xmlns="http://www.w3.org/2000/svg" viewBox="0 0 448.3146178401001 60" class="font"><!----><!----><!----><g data-v-423bf9ae="" id="63be1245-51a2-4706-86a8-d58ef43bd707" fill="white" transform="matrix(6.12870278179688,0,0,6.12870278179688,-3.615933399247183,-4.9642492082627925)"><path d="M8.11 2.46L8.11 8.40L8.11 8.40Q8.11 9.53 7.73 10.02L7.73 10.02L7.73 10.02Q7.35 10.50 6.57 10.50L6.57 10.50L6.57 10.50Q5.67 10.50 5.33 9.94L5.33 9.94L5.33 9.94Q4.42 10.60 3.14 10.60L3.14 10.60L3.14 10.60Q2.04 10.60 1.32 9.70L1.32 9.70L1.32 9.70Q0.59 8.79 0.59 7.22L0.59 7.22L0.59 7.22Q0.59 5.63 1.30 4.68L1.30 4.68L1.30 4.68Q2.02 3.74 3.14 3.74L3.14 3.74L3.14 3.74Q4.14 3.74 5.03 4.38L5.03 4.38L5.03 2.59L5.03 2.59Q5.03 1.74 5.45 1.32L5.45 1.32L5.45 1.32Q5.87 0.91 6.57 0.91L6.57 0.91L6.57 0.91Q7.34 0.91 7.72 1.22L7.72 1.22L7.72 1.22Q8.11 1.53 8.11 2.46L8.11 2.46ZM5.05 8.48L5.05 8.48L5.04 5.87L5.04 5.87Q4.80 5.47 4.42 5.47L4.42 5.47L4.42 5.47Q4.19 5.47 4.00 5.74L4.00 5.74L4.00 5.74Q3.81 6.01 3.71 6.40L3.71 6.40L3.71 6.40Q3.61 6.79 3.61 7.22L3.61 7.22L3.61 7.22Q3.61 7.87 3.82 8.37L3.82 8.37L3.82 8.37Q4.03 8.88 4.41 8.88L4.41 8.88L4.41 8.88Q4.48 8.88 4.55 8.86L4.55 8.86L4.55 8.86Q4.62 8.85 4.68 8.83L4.68 8.83L4.68 8.83Q4.73 8.81 4.79 8.77L4.79 8.77L4.79 8.77Q4.84 8.74 4.89 8.69L4.89 8.69L4.89 8.69Q4.93 8.65 4.97 8.60L4.97 8.60L4.97 8.60Q5.01 8.54 5.05 8.48ZM13.24 10.58L13.24 10.58L13.24 10.58Q11.54 10.58 10.42 9.70L10.42 9.70L10.42 9.70Q9.31 8.82 9.31 7.29L9.31 7.29L9.31 7.29Q9.31 5.64 10.41 4.68L10.41 4.68L10.41 4.68Q11.51 3.72 13.24 3.72L13.24 3.72L13.24 3.72Q14.88 3.72 15.64 4.30L15.64 4.30L15.64 4.30Q16.41 4.89 16.41 5.89L16.41 5.89L16.41 5.89Q16.41 6.09 16.36 6.27L16.36 6.27L16.36 6.27Q16.31 6.45 16.20 6.63L16.20 6.63L16.20 6.63Q16.10 6.80 15.93 6.95L15.93 6.95L15.93 6.95Q15.75 7.10 15.53 7.22L15.53 7.22L15.53 7.22Q15.30 7.34 14.99 7.40L14.99 7.40L14.99 7.40Q14.69 7.46 14.34 7.46L14.34 7.46L12.36 7.48L12.36 7.48Q12.50 7.92 12.87 8.18L12.87 8.18L12.87 8.18Q13.23 8.44 13.79 8.44L13.79 8.44L13.79 8.44Q14.39 8.44 15.02 8.29L15.02 8.29L15.02 8.29Q15.29 8.22 15.60 8.06L15.60 8.06L15.60 8.06Q15.92 7.91 16.06 7.91L16.06 7.91L16.06 7.91Q16.30 7.91 16.43 8.05L16.43 8.05L16.43 8.05Q16.56 8.19 16.56 8.40L16.56 8.40L16.56 8.40Q16.56 8.65 16.34 9.01L16.34 9.01L16.34 9.01Q16.11 9.37 15.71 9.72L15.71 9.72L15.71 9.72Q15.32 10.08 14.66 10.33L14.66 10.33L14.66 10.33Q14 10.58 13.24 10.58ZM12.29 6.58L12.29 6.58L12.29 6.58Q13.26 6.57 13.34 6.57L13.34 6.57L13.34 6.57Q13.55 6.57 13.65 6.31L13.65 6.31L13.65 6.31Q13.72 6.13 13.72 5.81L13.72 5.81L13.72 5.81Q13.72 4.93 13.19 4.93L13.19 4.93L13.19 4.93Q12.99 4.93 12.80 5.14L12.80 5.14L12.80 5.14Q12.61 5.35 12.47 5.73L12.47 5.73L12.47 5.73Q12.33 6.12 12.29 6.58ZM20.80 2.46L20.80 8.39L20.80 8.39Q20.80 9.52 20.43 10.01L20.43 10.01L20.43 10.01Q20.05 10.50 19.26 10.50L19.26 10.50L19.26 10.50Q18.48 10.50 18.12 10.06L18.12 10.06L18.12 10.06Q17.75 9.62 17.75 8.50L17.75 8.50L17.72 2.59L17.72 2.59Q17.72 2.23 17.80 1.95L17.80 1.95L17.80 1.95Q17.88 1.67 18.01 1.47L18.01 1.47L18.01 1.47Q18.14 1.27 18.34 1.15L18.34 1.15L18.34 1.15Q18.54 1.02 18.77 0.97L18.77 0.97L18.77 0.97Q19.00 0.91 19.26 0.91L19.26 0.91L19.26 0.91Q20.03 0.91 20.42 1.22L20.42 1.22L20.42 1.22Q20.80 1.53 20.80 2.46L20.80 2.46ZM22.05 1.88L22.05 1.88L22.05 1.88Q22.05 1.41 22.45 1.11L22.45 1.11L22.45 1.11Q22.85 0.81 23.58 0.81L23.58 0.81L23.58 0.81Q25.10 0.81 25.10 1.88L25.10 1.88L25.10 1.88Q25.10 2.46 24.72 2.70L24.72 2.70L24.72 2.70Q24.33 2.94 23.58 2.94L23.58 2.94L23.58 2.94Q22.92 2.94 22.48 2.69L22.48 2.69L22.48 2.69Q22.05 2.44 22.05 1.88ZM25.09 5.36L25.09 9.00L25.09 9.00Q25.09 9.84 24.74 10.17L24.74 10.17L24.74 10.17Q24.39 10.50 23.51 10.50L23.51 10.50L23.51 10.50Q22.68 10.50 22.38 10.12L22.38 10.12L22.38 10.12Q22.08 9.73 22.08 8.85L22.08 8.85L22.08 5.40L22.08 5.40Q22.08 4.69 22.46 4.26L22.46 4.26L22.46 4.26Q22.85 3.82 23.49 3.82L23.49 3.82L23.49 3.82Q24.25 3.82 24.67 4.15L24.67 4.15L24.67 4.15Q25.09 4.48 25.09 5.36L25.09 5.36ZM30.02 8.40L30.02 8.40L30.02 8.40Q30.42 8.40 30.53 8.17L30.53 8.17L30.53 8.17Q30.65 7.94 30.65 7.32L30.65 7.32L30.66 5.07L30.66 5.07Q30.66 4.63 30.81 4.37L30.81 4.37L30.81 4.37Q30.95 4.10 31.30 3.96L31.30 3.96L31.30 3.96Q31.65 3.82 32.24 3.82L32.24 3.82L32.24 3.82Q32.62 3.82 32.86 3.91L32.86 3.91L32.86 3.91Q33.10 3.99 33.28 4.18L33.28 4.18L33.28 4.18Q33.46 4.37 33.54 4.75L33.54 4.75L33.54 4.75Q33.63 5.14 33.67 5.68L33.67 5.68L33.67 5.68Q33.71 6.22 33.71 7.04L33.71 7.04L33.71 7.04Q33.71 7.80 33.47 8.40L33.47 8.40L33.47 8.40Q33.24 9.00 32.87 9.39L32.87 9.39L32.87 9.39Q32.49 9.77 32.00 10.03L32.00 10.03L32.00 10.03Q31.51 10.29 31.02 10.39L31.02 10.39L31.02 10.39Q30.53 10.50 30.04 10.50L30.04 10.50L30.04 10.50Q29.54 10.50 29.05 10.39L29.05 10.39L29.05 10.39Q28.56 10.29 28.06 10.03L28.06 10.03L28.06 10.03Q27.57 9.77 27.19 9.39L27.19 9.39L27.19 9.39Q26.81 9.00 26.57 8.40L26.57 8.40L26.57 8.40Q26.33 7.80 26.33 7.04L26.33 7.04L26.33 7.04Q26.33 5.67 26.46 5.00L26.46 5.00L26.46 5.00Q26.59 4.34 26.89 4.08L26.89 4.08L26.89 4.08Q27.19 3.82 27.80 3.82L27.80 3.82L27.80 3.82Q28.67 3.82 29.04 4.12L29.04 4.12L29.04 4.12Q29.40 4.42 29.40 5.07L29.40 5.07L29.41 7.31L29.41 7.31Q29.41 7.53 29.41 7.64L29.41 7.64L29.41 7.64Q29.41 7.74 29.43 7.90L29.43 7.90L29.43 7.90Q29.44 8.05 29.48 8.12L29.48 8.12L29.48 8.12Q29.53 8.19 29.59 8.27L29.59 8.27L29.59 8.27Q29.65 8.34 29.76 8.37L29.76 8.37L29.76 8.37Q29.86 8.40 30.02 8.40ZM38.85 10.58L38.85 10.58L38.85 10.58Q37.14 10.58 36.03 9.70L36.03 9.70L36.03 9.70Q34.92 8.82 34.92 7.29L34.92 7.29L34.92 7.29Q34.92 5.64 36.02 4.68L36.02 4.68L36.02 4.68Q37.11 3.72 38.85 3.72L38.85 3.72L38.85 3.72Q40.49 3.72 41.25 4.30L41.25 4.30L41.25 4.30Q42.01 4.89 42.01 5.89L42.01 5.89L42.01 5.89Q42.01 6.09 41.97 6.27L41.97 6.27L41.97 6.27Q41.92 6.45 41.81 6.63L41.81 6.63L41.81 6.63Q41.71 6.80 41.53 6.95L41.53 6.95L41.53 6.95Q41.36 7.10 41.13 7.22L41.13 7.22L41.13 7.22Q40.91 7.34 40.60 7.40L40.60 7.40L40.60 7.40Q40.29 7.46 39.94 7.46L39.94 7.46L37.97 7.48L37.97 7.48Q38.11 7.92 38.47 8.18L38.47 8.18L38.47 8.18Q38.84 8.44 39.40 8.44L39.40 8.44L39.40 8.44Q40.00 8.44 40.63 8.29L40.63 8.29L40.63 8.29Q40.89 8.22 41.21 8.06L41.21 8.06L41.21 8.06Q41.52 7.91 41.66 7.91L41.66 7.91L41.66 7.91Q41.90 7.91 42.04 8.05L42.04 8.05L42.04 8.05Q42.17 8.19 42.17 8.40L42.17 8.40L42.17 8.40Q42.17 8.65 41.94 9.01L41.94 9.01L41.94 9.01Q41.72 9.37 41.32 9.72L41.32 9.72L41.32 9.72Q40.92 10.08 40.26 10.33L40.26 10.33L40.26 10.33Q39.61 10.58 38.85 10.58ZM37.90 6.58L37.90 6.58L37.90 6.58Q38.86 6.57 38.95 6.57L38.95 6.57L38.95 6.57Q39.16 6.57 39.26 6.31L39.26 6.31L39.26 6.31Q39.33 6.13 39.33 5.81L39.33 5.81L39.33 5.81Q39.33 4.93 38.79 4.93L38.79 4.93L38.79 4.93Q38.60 4.93 38.41 5.14L38.41 5.14L38.41 5.14Q38.22 5.35 38.08 5.73L38.08 5.73L38.08 5.73Q37.94 6.12 37.90 6.58ZM46.34 6.19L46.34 9.00L46.34 9.00Q46.34 9.84 45.99 10.17L45.99 10.17L45.99 10.17Q45.64 10.50 44.74 10.50L44.74 10.50L44.74 10.50Q43.92 10.50 43.62 10.12L43.62 10.12L43.62 10.12Q43.33 9.73 43.33 8.85L43.33 8.85L43.33 5.40L43.33 5.40Q43.33 4.93 43.50 4.57L43.50 4.57L43.50 4.57Q43.67 4.21 43.99 4.02L43.99 4.02L43.99 4.02Q44.31 3.82 44.74 3.82L44.74 3.82L44.74 3.82Q45.81 3.82 46.14 4.44L46.14 4.44L46.14 4.44Q46.96 3.82 47.71 3.82L47.71 3.82L47.71 3.82Q49.18 3.82 49.18 5.22L49.18 5.22L49.18 5.22Q49.18 5.78 48.86 6.13L48.86 6.13L48.86 6.13Q48.54 6.48 48.02 6.48L48.02 6.48L48.02 6.48Q47.71 6.48 47.52 6.36L47.52 6.36L47.52 6.36Q47.33 6.23 47.17 6.10L47.17 6.10L47.17 6.10Q47.01 5.98 46.80 5.98L46.80 5.98L46.80 5.98Q46.49 5.98 46.34 6.19L46.34 6.19ZM49.71 9.53L49.71 9.53L49.71 9.53Q49.71 9.06 50.11 8.76L50.11 8.76L50.11 8.76Q50.51 8.47 51.24 8.47L51.24 8.47L51.24 8.47Q52.77 8.47 52.77 9.53L52.77 9.53L52.77 9.53Q52.77 9.94 52.57 10.19L52.57 10.19L52.57 10.19Q52.37 10.43 52.05 10.51L52.05 10.51L52.05 10.51Q51.73 10.60 51.24 10.60L51.24 10.60L51.24 10.60Q50.58 10.60 50.15 10.35L50.15 10.35L50.15 10.35Q49.71 10.09 49.71 9.53ZM62.20 9.34L62.20 6.80L62.20 6.80Q62.20 6.02 61.57 6.02L61.57 6.02L61.57 6.02Q61.29 6.02 61.15 6.34L61.15 6.34L61.15 6.34Q61.01 6.66 61.01 7.15L61.01 7.15L61.01 7.15Q61.01 7.90 60.99 8.39L60.99 8.39L60.99 8.39Q60.97 8.88 60.90 9.27L60.90 9.27L60.90 9.27Q60.83 9.66 60.73 9.88L60.73 9.88L60.73 9.88Q60.63 10.11 60.47 10.26L60.47 10.26L60.47 10.26Q60.30 10.40 60.09 10.45L60.09 10.45L60.09 10.45Q59.88 10.50 59.56 10.50L59.56 10.50L59.56 10.50Q59.07 10.50 58.77 10.36L58.77 10.36L58.77 10.36Q58.46 10.22 58.34 9.97L58.34 9.97L58.34 9.97Q58.21 9.72 58.21 9.34L58.21 9.34L58.21 6.80L58.21 6.80Q58.21 6.02 57.58 6.02L57.58 6.02L57.58 6.02Q57.33 6.02 57.17 6.31L57.17 6.31L57.17 6.31Q57.01 6.59 57.01 7.06L57.01 7.06L57.01 9.00L57.01 9.00Q57.01 9.84 56.66 10.17L56.66 10.17L56.66 10.17Q56.31 10.50 55.43 10.50L55.43 10.50L55.43 10.50Q54.60 10.50 54.30 10.12L54.30 10.12L54.30 10.12Q54.00 9.73 54.00 8.85L54.00 8.85L54.00 5.40L54.00 5.40Q54.00 4.69 54.38 4.26L54.38 4.26L54.38 4.26Q54.77 3.82 55.41 3.82L55.41 3.82L55.41 3.82Q56.56 3.82 56.87 4.56L56.87 4.56L56.87 4.56Q57.40 4.17 57.91 4.02L57.91 4.02L57.91 4.02Q58.42 3.86 59.11 3.86L59.11 3.86L59.11 3.86Q60.14 3.86 60.61 4.76L60.61 4.76L60.61 4.76Q60.68 4.70 60.75 4.65L60.75 4.65L60.75 4.65Q61.82 3.86 63.39 3.86L63.39 3.86L63.39 3.86Q64.39 3.86 64.82 4.62L64.82 4.62L64.82 4.62Q65.25 5.38 65.25 7.15L65.25 7.15L65.25 7.15Q65.25 7.90 65.23 8.39L65.23 8.39L65.23 8.39Q65.21 8.88 65.14 9.27L65.14 9.27L65.14 9.27Q65.07 9.66 64.97 9.88L64.97 9.88L64.97 9.88Q64.86 10.11 64.67 10.26L64.67 10.26L64.67 10.26Q64.48 10.40 64.25 10.45L64.25 10.45L64.25 10.45Q64.02 10.50 63.67 10.50L63.67 10.50L63.67 10.50Q63.14 10.50 62.81 10.36L62.81 10.36L62.81 10.36Q62.48 10.22 62.34 9.97L62.34 9.97L62.34 9.97Q62.20 9.72 62.20 9.34L62.20 9.34ZM70.42 10.58L70.42 10.58L70.42 10.58Q68.71 10.58 67.60 9.70L67.60 9.70L67.60 9.70Q66.49 8.82 66.49 7.29L66.49 7.29L66.49 7.29Q66.49 5.64 67.59 4.68L67.59 4.68L67.59 4.68Q68.68 3.72 70.42 3.72L70.42 3.72L70.42 3.72Q72.06 3.72 72.82 4.30L72.82 4.30L72.82 4.30Q73.58 4.89 73.58 5.89L73.58 5.89L73.58 5.89Q73.58 6.09 73.53 6.27L73.53 6.27L73.53 6.27Q73.49 6.45 73.38 6.63L73.38 6.63L73.38 6.63Q73.28 6.80 73.10 6.95L73.10 6.95L73.10 6.95Q72.93 7.10 72.70 7.22L72.70 7.22L72.70 7.22Q72.48 7.34 72.17 7.40L72.17 7.40L72.17 7.40Q71.86 7.46 71.51 7.46L71.51 7.46L69.54 7.48L69.54 7.48Q69.68 7.92 70.04 8.18L70.04 8.18L70.04 8.18Q70.41 8.44 70.97 8.44L70.97 8.44L70.97 8.44Q71.57 8.44 72.20 8.29L72.20 8.29L72.20 8.29Q72.46 8.22 72.78 8.06L72.78 8.06L72.78 8.06Q73.09 7.91 73.23 7.91L73.23 7.91L73.23 7.91Q73.47 7.91 73.61 8.05L73.61 8.05L73.61 8.05Q73.74 8.19 73.74 8.40L73.74 8.40L73.74 8.40Q73.74 8.65 73.51 9.01L73.51 9.01L73.51 9.01Q73.29 9.37 72.89 9.72L72.89 9.72L72.89 9.72Q72.49 10.08 71.83 10.33L71.83 10.33L71.83 10.33Q71.18 10.58 70.42 10.58ZM69.47 6.58L69.47 6.58L69.47 6.58Q70.43 6.57 70.52 6.57L70.52 6.57L70.52 6.57Q70.73 6.57 70.83 6.31L70.83 6.31L70.83 6.31Q70.90 6.13 70.90 5.81L70.90 5.81L70.90 5.81Q70.90 4.93 70.36 4.93L70.36 4.93L70.36 4.93Q70.17 4.93 69.98 5.14L69.98 5.14L69.98 5.14Q69.79 5.35 69.65 5.73L69.65 5.73L69.65 5.73Q69.51 6.12 69.47 6.58Z"></path></g><!----><!----></svg>